<mxfile host="app.diagrams.net" modified="2022-07-29T16:20:09.952Z" agent="5.0 (Windows NT 10.0; Win64; x64) AppleWebKit/537.36 (KHTML, like Gecko) Chrome/103.0.0.0 Safari/537.36" etag="EyV7tkRaYcHuDIAmp_PX" version="20.2.2" type="github">
  <diagram id="y2GmofHORTgDPPZw9UnF" name="Страница 1">
    <mxGraphModel dx="1100" dy="765" grid="1" gridSize="10" guides="1" tooltips="1" connect="1" arrows="1" fold="1" page="1" pageScale="1" pageWidth="2339" pageHeight="3300" math="0" shadow="0">
      <root>
        <mxCell id="0" />
        <mxCell id="1" parent="0" />
        <mxCell id="cjwO3AnnN_CwGR4ci8No-4" value="" style="edgeStyle=orthogonalEdgeStyle;rounded=0;orthogonalLoop=1;jettySize=auto;html=1;" edge="1" parent="1" source="cjwO3AnnN_CwGR4ci8No-1" target="cjwO3AnnN_CwGR4ci8No-3">
          <mxGeometry relative="1" as="geometry" />
        </mxCell>
        <mxCell id="cjwO3AnnN_CwGR4ci8No-1" value="MiniApp" style="whiteSpace=wrap;html=1;aspect=fixed;" vertex="1" parent="1">
          <mxGeometry x="960" y="50" width="80" height="80" as="geometry" />
        </mxCell>
        <mxCell id="cjwO3AnnN_CwGR4ci8No-6" value="" style="edgeStyle=orthogonalEdgeStyle;rounded=0;orthogonalLoop=1;jettySize=auto;html=1;startArrow=none;" edge="1" parent="1" source="cjwO3AnnN_CwGR4ci8No-17">
          <mxGeometry relative="1" as="geometry">
            <mxPoint x="1000" y="300" as="targetPoint" />
            <Array as="points">
              <mxPoint x="1000" y="270" />
              <mxPoint x="1000" y="270" />
            </Array>
          </mxGeometry>
        </mxCell>
        <mxCell id="cjwO3AnnN_CwGR4ci8No-12" style="edgeStyle=orthogonalEdgeStyle;rounded=0;orthogonalLoop=1;jettySize=auto;html=1;entryX=0.5;entryY=0;entryDx=0;entryDy=0;" edge="1" parent="1" source="cjwO3AnnN_CwGR4ci8No-3" target="cjwO3AnnN_CwGR4ci8No-9">
          <mxGeometry relative="1" as="geometry" />
        </mxCell>
        <mxCell id="cjwO3AnnN_CwGR4ci8No-15" style="edgeStyle=orthogonalEdgeStyle;rounded=0;orthogonalLoop=1;jettySize=auto;html=1;entryX=0.5;entryY=0;entryDx=0;entryDy=0;" edge="1" parent="1" source="cjwO3AnnN_CwGR4ci8No-3" target="cjwO3AnnN_CwGR4ci8No-13">
          <mxGeometry relative="1" as="geometry" />
        </mxCell>
        <mxCell id="cjwO3AnnN_CwGR4ci8No-3" value="Добавление учереждения" style="whiteSpace=wrap;html=1;aspect=fixed;" vertex="1" parent="1">
          <mxGeometry x="960" y="170" width="80" height="80" as="geometry" />
        </mxCell>
        <mxCell id="cjwO3AnnN_CwGR4ci8No-8" value="" style="edgeStyle=orthogonalEdgeStyle;rounded=0;orthogonalLoop=1;jettySize=auto;html=1;entryX=0.5;entryY=0;entryDx=0;entryDy=0;" edge="1" parent="1" source="cjwO3AnnN_CwGR4ci8No-5" target="cjwO3AnnN_CwGR4ci8No-7">
          <mxGeometry relative="1" as="geometry">
            <mxPoint x="1000" y="525" as="targetPoint" />
          </mxGeometry>
        </mxCell>
        <mxCell id="cjwO3AnnN_CwGR4ci8No-11" style="edgeStyle=orthogonalEdgeStyle;rounded=0;orthogonalLoop=1;jettySize=auto;html=1;entryX=0;entryY=0.5;entryDx=0;entryDy=0;" edge="1" parent="1" source="cjwO3AnnN_CwGR4ci8No-5" target="cjwO3AnnN_CwGR4ci8No-9">
          <mxGeometry relative="1" as="geometry" />
        </mxCell>
        <mxCell id="cjwO3AnnN_CwGR4ci8No-14" value="" style="edgeStyle=orthogonalEdgeStyle;rounded=0;orthogonalLoop=1;jettySize=auto;html=1;entryX=1;entryY=0.5;entryDx=0;entryDy=0;" edge="1" parent="1" source="cjwO3AnnN_CwGR4ci8No-5" target="cjwO3AnnN_CwGR4ci8No-13">
          <mxGeometry relative="1" as="geometry">
            <mxPoint x="900" y="450" as="targetPoint" />
          </mxGeometry>
        </mxCell>
        <mxCell id="cjwO3AnnN_CwGR4ci8No-5" value="Добавление групп" style="whiteSpace=wrap;html=1;aspect=fixed;" vertex="1" parent="1">
          <mxGeometry x="960" y="410" width="80" height="80" as="geometry" />
        </mxCell>
        <mxCell id="cjwO3AnnN_CwGR4ci8No-10" value="" style="edgeStyle=orthogonalEdgeStyle;rounded=0;orthogonalLoop=1;jettySize=auto;html=1;" edge="1" parent="1" target="cjwO3AnnN_CwGR4ci8No-9">
          <mxGeometry relative="1" as="geometry">
            <mxPoint x="1040" y="565" as="sourcePoint" />
          </mxGeometry>
        </mxCell>
        <mxCell id="cjwO3AnnN_CwGR4ci8No-16" style="edgeStyle=orthogonalEdgeStyle;rounded=0;orthogonalLoop=1;jettySize=auto;html=1;entryX=0.5;entryY=1;entryDx=0;entryDy=0;" edge="1" parent="1" target="cjwO3AnnN_CwGR4ci8No-13">
          <mxGeometry relative="1" as="geometry">
            <mxPoint x="960" y="565" as="sourcePoint" />
            <mxPoint x="840" y="480" as="targetPoint" />
          </mxGeometry>
        </mxCell>
        <mxCell id="cjwO3AnnN_CwGR4ci8No-7" value="Добавление участников" style="whiteSpace=wrap;html=1;aspect=fixed;" vertex="1" parent="1">
          <mxGeometry x="960" y="530" width="80" height="80" as="geometry" />
        </mxCell>
        <mxCell id="cjwO3AnnN_CwGR4ci8No-9" value="Добавление аккаунтов Vk" style="ellipse;whiteSpace=wrap;html=1;" vertex="1" parent="1">
          <mxGeometry x="1080" y="420" width="120" height="60" as="geometry" />
        </mxCell>
        <mxCell id="cjwO3AnnN_CwGR4ci8No-13" value="Добавление вручную" style="ellipse;whiteSpace=wrap;html=1;" vertex="1" parent="1">
          <mxGeometry x="800" y="420" width="120" height="60" as="geometry" />
        </mxCell>
        <mxCell id="cjwO3AnnN_CwGR4ci8No-19" style="edgeStyle=orthogonalEdgeStyle;rounded=0;orthogonalLoop=1;jettySize=auto;html=1;entryX=0.5;entryY=0;entryDx=0;entryDy=0;" edge="1" parent="1" source="cjwO3AnnN_CwGR4ci8No-17" target="cjwO3AnnN_CwGR4ci8No-5">
          <mxGeometry relative="1" as="geometry" />
        </mxCell>
        <mxCell id="cjwO3AnnN_CwGR4ci8No-20" style="edgeStyle=orthogonalEdgeStyle;rounded=0;orthogonalLoop=1;jettySize=auto;html=1;entryX=0;entryY=0;entryDx=0;entryDy=0;" edge="1" parent="1" source="cjwO3AnnN_CwGR4ci8No-17" target="cjwO3AnnN_CwGR4ci8No-9">
          <mxGeometry relative="1" as="geometry" />
        </mxCell>
        <mxCell id="cjwO3AnnN_CwGR4ci8No-21" style="edgeStyle=orthogonalEdgeStyle;rounded=0;orthogonalLoop=1;jettySize=auto;html=1;entryX=1;entryY=0;entryDx=0;entryDy=0;" edge="1" parent="1" source="cjwO3AnnN_CwGR4ci8No-17" target="cjwO3AnnN_CwGR4ci8No-13">
          <mxGeometry relative="1" as="geometry" />
        </mxCell>
        <mxCell id="cjwO3AnnN_CwGR4ci8No-17" value="Добавление факультетов/направлений" style="whiteSpace=wrap;html=1;aspect=fixed;" vertex="1" parent="1">
          <mxGeometry x="960" y="300" width="80" height="80" as="geometry" />
        </mxCell>
        <mxCell id="cjwO3AnnN_CwGR4ci8No-18" value="" style="edgeStyle=orthogonalEdgeStyle;rounded=0;orthogonalLoop=1;jettySize=auto;html=1;endArrow=none;" edge="1" parent="1" source="cjwO3AnnN_CwGR4ci8No-3">
          <mxGeometry relative="1" as="geometry">
            <mxPoint x="1000" y="250" as="sourcePoint" />
            <mxPoint x="1000" y="300" as="targetPoint" />
            <Array as="points" />
          </mxGeometry>
        </mxCell>
        <mxCell id="cjwO3AnnN_CwGR4ci8No-26" value="" style="edgeStyle=orthogonalEdgeStyle;rounded=0;orthogonalLoop=1;jettySize=auto;html=1;" edge="1" parent="1" source="cjwO3AnnN_CwGR4ci8No-22" target="cjwO3AnnN_CwGR4ci8No-25">
          <mxGeometry relative="1" as="geometry" />
        </mxCell>
        <mxCell id="cjwO3AnnN_CwGR4ci8No-28" value="" style="edgeStyle=orthogonalEdgeStyle;rounded=0;orthogonalLoop=1;jettySize=auto;html=1;" edge="1" parent="1" source="cjwO3AnnN_CwGR4ci8No-22" target="cjwO3AnnN_CwGR4ci8No-27">
          <mxGeometry relative="1" as="geometry" />
        </mxCell>
        <mxCell id="cjwO3AnnN_CwGR4ci8No-22" value="Контроль посещаемости" style="whiteSpace=wrap;html=1;aspect=fixed;labelBackgroundColor=none;fillColor=#f8cecc;strokeColor=#b85450;" vertex="1" parent="1">
          <mxGeometry x="1160" y="560" width="80" height="80" as="geometry" />
        </mxCell>
        <mxCell id="cjwO3AnnN_CwGR4ci8No-24" value="" style="endArrow=classic;html=1;rounded=0;exitX=1;exitY=1;exitDx=0;exitDy=0;entryX=0.5;entryY=0;entryDx=0;entryDy=0;" edge="1" parent="1" source="cjwO3AnnN_CwGR4ci8No-5" target="cjwO3AnnN_CwGR4ci8No-22">
          <mxGeometry width="50" height="50" relative="1" as="geometry">
            <mxPoint x="1140" y="430" as="sourcePoint" />
            <mxPoint x="1190" y="380" as="targetPoint" />
            <Array as="points" />
          </mxGeometry>
        </mxCell>
        <mxCell id="cjwO3AnnN_CwGR4ci8No-38" value="Функционал групп" style="edgeLabel;html=1;align=center;verticalAlign=middle;resizable=0;points=[];labelBackgroundColor=#919191;" vertex="1" connectable="0" parent="cjwO3AnnN_CwGR4ci8No-24">
          <mxGeometry x="-0.2034" y="3" relative="1" as="geometry">
            <mxPoint as="offset" />
          </mxGeometry>
        </mxCell>
        <mxCell id="cjwO3AnnN_CwGR4ci8No-25" value="Создание расписания (недельное)" style="whiteSpace=wrap;html=1;aspect=fixed;" vertex="1" parent="1">
          <mxGeometry x="1030" y="700" width="80" height="80" as="geometry" />
        </mxCell>
        <mxCell id="cjwO3AnnN_CwGR4ci8No-40" value="" style="edgeStyle=orthogonalEdgeStyle;rounded=0;orthogonalLoop=1;jettySize=auto;html=1;entryX=0;entryY=0.5;entryDx=0;entryDy=0;" edge="1" parent="1" source="cjwO3AnnN_CwGR4ci8No-27" target="cjwO3AnnN_CwGR4ci8No-39">
          <mxGeometry relative="1" as="geometry">
            <Array as="points">
              <mxPoint x="1410" y="740" />
              <mxPoint x="1410" y="650" />
            </Array>
          </mxGeometry>
        </mxCell>
        <mxCell id="cjwO3AnnN_CwGR4ci8No-42" value="" style="edgeStyle=orthogonalEdgeStyle;rounded=0;orthogonalLoop=1;jettySize=auto;html=1;" edge="1" parent="1" source="cjwO3AnnN_CwGR4ci8No-27" target="cjwO3AnnN_CwGR4ci8No-41">
          <mxGeometry relative="1" as="geometry" />
        </mxCell>
        <mxCell id="cjwO3AnnN_CwGR4ci8No-44" value="" style="edgeStyle=orthogonalEdgeStyle;rounded=0;orthogonalLoop=1;jettySize=auto;html=1;entryX=0;entryY=0.5;entryDx=0;entryDy=0;" edge="1" parent="1" source="cjwO3AnnN_CwGR4ci8No-27" target="cjwO3AnnN_CwGR4ci8No-43">
          <mxGeometry relative="1" as="geometry">
            <Array as="points">
              <mxPoint x="1410" y="740" />
              <mxPoint x="1410" y="830" />
            </Array>
          </mxGeometry>
        </mxCell>
        <mxCell id="cjwO3AnnN_CwGR4ci8No-27" value="Бот для оповещений" style="whiteSpace=wrap;html=1;aspect=fixed;" vertex="1" parent="1">
          <mxGeometry x="1290" y="700" width="80" height="80" as="geometry" />
        </mxCell>
        <mxCell id="cjwO3AnnN_CwGR4ci8No-29" value="Атоматическое размещение записей в группах, по расписанию" style="whiteSpace=wrap;html=1;aspect=fixed;" vertex="1" parent="1">
          <mxGeometry x="1150" y="700" width="100" height="100" as="geometry" />
        </mxCell>
        <mxCell id="cjwO3AnnN_CwGR4ci8No-30" value="" style="endArrow=classic;html=1;rounded=0;exitX=0.5;exitY=1;exitDx=0;exitDy=0;entryX=0.5;entryY=0;entryDx=0;entryDy=0;" edge="1" parent="1" source="cjwO3AnnN_CwGR4ci8No-22" target="cjwO3AnnN_CwGR4ci8No-29">
          <mxGeometry width="50" height="50" relative="1" as="geometry">
            <mxPoint x="1120" y="770" as="sourcePoint" />
            <mxPoint x="1170" y="720" as="targetPoint" />
          </mxGeometry>
        </mxCell>
        <mxCell id="cjwO3AnnN_CwGR4ci8No-31" value="Роли" style="shape=umlActor;verticalLabelPosition=bottom;verticalAlign=top;html=1;outlineConnect=0;" vertex="1" parent="1">
          <mxGeometry x="1210" y="90" width="30" height="60" as="geometry" />
        </mxCell>
        <mxCell id="cjwO3AnnN_CwGR4ci8No-36" value="&lt;div style=&quot;&quot;&gt;&lt;span style=&quot;background-color: initial;&quot;&gt;1) Администратор&lt;/span&gt;&lt;/div&gt;&lt;div style=&quot;&quot;&gt;&lt;span style=&quot;background-color: initial;&quot;&gt;2) Администратор учереждения&lt;/span&gt;&lt;/div&gt;&lt;div style=&quot;&quot;&gt;&lt;span style=&quot;background-color: initial;&quot;&gt;3) Администратор направления&lt;/span&gt;&lt;/div&gt;&lt;div style=&quot;&quot;&gt;&lt;span style=&quot;background-color: initial;&quot;&gt;4) Администратор группы (Преподаватель)&lt;/span&gt;&lt;/div&gt;&lt;div style=&quot;&quot;&gt;&lt;span style=&quot;background-color: initial;&quot;&gt;5) Учащийся&lt;/span&gt;&lt;/div&gt;" style="whiteSpace=wrap;html=1;aspect=fixed;align=left;verticalAlign=top;" vertex="1" parent="1">
          <mxGeometry x="1250" y="40" width="180" height="180" as="geometry" />
        </mxCell>
        <mxCell id="cjwO3AnnN_CwGR4ci8No-39" value="Оповещение о скором начале пары" style="whiteSpace=wrap;html=1;aspect=fixed;" vertex="1" parent="1">
          <mxGeometry x="1440" y="610" width="80" height="80" as="geometry" />
        </mxCell>
        <mxCell id="cjwO3AnnN_CwGR4ci8No-41" value="Оповещение о пропуске" style="whiteSpace=wrap;html=1;aspect=fixed;" vertex="1" parent="1">
          <mxGeometry x="1440" y="700" width="80" height="80" as="geometry" />
        </mxCell>
        <mxCell id="cjwO3AnnN_CwGR4ci8No-43" value="Оповещение об успешном посещении" style="whiteSpace=wrap;html=1;aspect=fixed;" vertex="1" parent="1">
          <mxGeometry x="1440" y="790" width="80" height="80" as="geometry" />
        </mxCell>
        <mxCell id="cjwO3AnnN_CwGR4ci8No-45" value="" style="endArrow=classic;html=1;rounded=0;exitX=0.75;exitY=1;exitDx=0;exitDy=0;entryX=0.5;entryY=1;entryDx=0;entryDy=0;" edge="1" parent="1" source="cjwO3AnnN_CwGR4ci8No-29" target="cjwO3AnnN_CwGR4ci8No-27">
          <mxGeometry width="50" height="50" relative="1" as="geometry">
            <mxPoint x="1270" y="840" as="sourcePoint" />
            <mxPoint x="1320" y="790" as="targetPoint" />
            <Array as="points">
              <mxPoint x="1225" y="870" />
              <mxPoint x="1330" y="870" />
            </Array>
          </mxGeometry>
        </mxCell>
        <mxCell id="cjwO3AnnN_CwGR4ci8No-46" value="Оповещение о паре" style="edgeLabel;html=1;align=center;verticalAlign=middle;resizable=0;points=[];labelBackgroundColor=#919191;" vertex="1" connectable="0" parent="cjwO3AnnN_CwGR4ci8No-45">
          <mxGeometry x="-0.0256" y="2" relative="1" as="geometry">
            <mxPoint as="offset" />
          </mxGeometry>
        </mxCell>
      </root>
    </mxGraphModel>
  </diagram>
</mxfile>
